<mxfile host="65bd71144e">
    <diagram id="Xyn-6cHYuOeSknm_-rp8" name="Page-1">
        <mxGraphModel dx="2222" dy="3326" grid="1" gridSize="10" guides="1" tooltips="1" connect="1" arrows="1" fold="1" page="1" pageScale="1" pageWidth="850" pageHeight="1100" math="0" shadow="0">
            <root>
                <mxCell id="0"/>
                <mxCell id="1" parent="0"/>
                <mxCell id="55" value="DETAILGROUPS" style="swimlane;whiteSpace=wrap;html=1;" parent="1" vertex="1">
                    <mxGeometry x="-590" y="-2010" width="200" height="100" as="geometry"/>
                </mxCell>
                <mxCell id="93" value="&lt;ul&gt;&lt;li style=&quot;text-align: left;&quot;&gt;id&lt;/li&gt;&lt;li style=&quot;text-align: left;&quot;&gt;display_order&lt;/li&gt;&lt;li style=&quot;text-align: left;&quot;&gt;name&lt;/li&gt;&lt;/ul&gt;&lt;div style=&quot;width: 12px; z-index: 1; touch-action: none; top: 69px; left: 212px; bottom: 37px;&quot; class=&quot;geHsplit&quot;&gt;&lt;/div&gt;" style="text;html=1;align=center;verticalAlign=middle;resizable=0;points=[];autosize=1;strokeColor=none;fillColor=none;" parent="55" vertex="1">
                    <mxGeometry x="-25" y="10" width="140" height="100" as="geometry"/>
                </mxCell>
                <mxCell id="58" value="COMPANIES" style="swimlane;whiteSpace=wrap;html=1;" parent="1" vertex="1">
                    <mxGeometry x="325" y="-1330" width="200" height="80" as="geometry"/>
                </mxCell>
                <mxCell id="95" value="&lt;ul&gt;&lt;li style=&quot;text-align: left;&quot;&gt;id&lt;/li&gt;&lt;li style=&quot;text-align: left;&quot;&gt;name&lt;/li&gt;&lt;/ul&gt;&lt;div style=&quot;width: 12px; z-index: 1; touch-action: none; top: 69px; left: 212px; bottom: 37px;&quot; class=&quot;geHsplit&quot;&gt;&lt;/div&gt;" style="text;html=1;align=center;verticalAlign=middle;resizable=0;points=[];autosize=1;strokeColor=none;fillColor=none;" parent="58" vertex="1">
                    <mxGeometry x="-25" y="10" width="90" height="80" as="geometry"/>
                </mxCell>
                <mxCell id="59" value="DETAILDEFS" style="swimlane;whiteSpace=wrap;html=1;startSize=23;" parent="1" vertex="1">
                    <mxGeometry x="-300" y="-2065" width="200" height="210" as="geometry"/>
                </mxCell>
                <mxCell id="83" value="&lt;ul&gt;&lt;li style=&quot;text-align: left;&quot;&gt;id&lt;/li&gt;&lt;li style=&quot;text-align: left;&quot;&gt;vlevel&lt;/li&gt;&lt;li style=&quot;text-align: left;&quot;&gt;group_ID&lt;/li&gt;&lt;li style=&quot;text-align: left;&quot;&gt;display_order&lt;/li&gt;&lt;li style=&quot;text-align: left;&quot;&gt;properties&lt;/li&gt;&lt;li style=&quot;text-align: left;&quot;&gt;propertytype_ID&lt;/li&gt;&lt;li style=&quot;text-align: left;&quot;&gt;property_DEF&lt;/li&gt;&lt;li style=&quot;text-align: left;&quot;&gt;display_name&lt;/li&gt;&lt;/ul&gt;&lt;div style=&quot;width: 12px; z-index: 1; touch-action: none; top: 69px; left: 212px; bottom: 37px;&quot; class=&quot;geHsplit&quot;&gt;&lt;/div&gt;" style="text;html=1;align=center;verticalAlign=middle;resizable=0;points=[];autosize=1;strokeColor=none;fillColor=none;" parent="59" vertex="1">
                    <mxGeometry x="-30" y="10" width="150" height="200" as="geometry"/>
                </mxCell>
                <mxCell id="60" value="SUPPLIERS_RUBRIEK_VIEW" style="swimlane;whiteSpace=wrap;html=1;" parent="1" vertex="1">
                    <mxGeometry x="90" y="-1445" width="200" height="105" as="geometry"/>
                </mxCell>
                <mxCell id="94" value="&lt;ul&gt;&lt;li style=&quot;text-align: left;&quot;&gt;id&lt;/li&gt;&lt;li style=&quot;text-align: left;&quot;&gt;suppliers_ID&lt;/li&gt;&lt;li style=&quot;text-align: left;&quot;&gt;rubriek_view_ID&lt;/li&gt;&lt;/ul&gt;&lt;div style=&quot;width: 12px; z-index: 1; touch-action: none; top: 69px; left: 212px; bottom: 37px;&quot; class=&quot;geHsplit&quot;&gt;&lt;/div&gt;" style="text;html=1;align=center;verticalAlign=middle;resizable=0;points=[];autosize=1;strokeColor=none;fillColor=none;" parent="60" vertex="1">
                    <mxGeometry x="-25" y="8" width="150" height="100" as="geometry"/>
                </mxCell>
                <mxCell id="61" value="DISTRICTS" style="swimlane;whiteSpace=wrap;html=1;" parent="1" vertex="1">
                    <mxGeometry x="1320" y="-1790" width="200" height="140" as="geometry"/>
                </mxCell>
                <mxCell id="96" value="&lt;ul&gt;&lt;li style=&quot;text-align: left;&quot;&gt;id&lt;/li&gt;&lt;li style=&quot;text-align: left;&quot;&gt;country_ID&lt;/li&gt;&lt;li style=&quot;text-align: left;&quot;&gt;code&lt;/li&gt;&lt;li style=&quot;text-align: left;&quot;&gt;name&lt;/li&gt;&lt;li style=&quot;text-align: left;&quot;&gt;display_order&lt;/li&gt;&lt;/ul&gt;&lt;div style=&quot;width: 12px; z-index: 1; touch-action: none; top: 69px; left: 212px; bottom: 37px;&quot; class=&quot;geHsplit&quot;&gt;&lt;/div&gt;" style="text;html=1;align=center;verticalAlign=middle;resizable=0;points=[];autosize=1;strokeColor=none;fillColor=none;" parent="61" vertex="1">
                    <mxGeometry x="-19" y="10" width="140" height="140" as="geometry"/>
                </mxCell>
                <mxCell id="62" value="CITIES" style="swimlane;whiteSpace=wrap;html=1;" parent="1" vertex="1">
                    <mxGeometry x="680" y="-1785" width="200" height="110" as="geometry"/>
                </mxCell>
                <mxCell id="78" value="&lt;ul&gt;&lt;li style=&quot;text-align: left;&quot;&gt;id&lt;/li&gt;&lt;li style=&quot;text-align: left;&quot;&gt;commune_ID&lt;/li&gt;&lt;li style=&quot;text-align: left;&quot;&gt;name&lt;/li&gt;&lt;/ul&gt;&lt;div style=&quot;width: 12px; z-index: 1; touch-action: none; top: 69px; left: 212px; bottom: 37px;&quot; class=&quot;geHsplit&quot;&gt;&lt;/div&gt;" style="text;html=1;align=center;verticalAlign=middle;resizable=0;points=[];autosize=1;strokeColor=none;fillColor=none;" parent="62" vertex="1">
                    <mxGeometry x="-20" y="10" width="130" height="100" as="geometry"/>
                </mxCell>
                <mxCell id="63" value="RUBRIEKEN" style="swimlane;whiteSpace=wrap;html=1;" parent="1" vertex="1">
                    <mxGeometry x="90" y="-1270" width="200" height="120" as="geometry"/>
                </mxCell>
                <mxCell id="87" value="&lt;ul&gt;&lt;li style=&quot;text-align: left;&quot;&gt;id&lt;/li&gt;&lt;li style=&quot;text-align: left;&quot;&gt;parent&lt;/li&gt;&lt;li style=&quot;text-align: left;&quot;&gt;display_order&lt;/li&gt;&lt;li style=&quot;text-align: left;&quot;&gt;name&lt;/li&gt;&lt;/ul&gt;&lt;div style=&quot;width: 12px; z-index: 1; touch-action: none; top: 69px; left: 212px; bottom: 37px;&quot; class=&quot;geHsplit&quot;&gt;&lt;/div&gt;" style="text;html=1;align=center;verticalAlign=middle;resizable=0;points=[];autosize=1;strokeColor=none;fillColor=none;" parent="63" vertex="1">
                    <mxGeometry x="-30" y="10" width="140" height="120" as="geometry"/>
                </mxCell>
                <mxCell id="64" value="BRANDS" style="swimlane;whiteSpace=wrap;html=1;" parent="1" vertex="1">
                    <mxGeometry x="990" y="-1400" width="200" height="80" as="geometry"/>
                </mxCell>
                <mxCell id="89" value="&lt;ul&gt;&lt;li style=&quot;text-align: left;&quot;&gt;id&lt;/li&gt;&lt;li style=&quot;text-align: left;&quot;&gt;name&lt;/li&gt;&lt;/ul&gt;&lt;div style=&quot;width: 12px; z-index: 1; touch-action: none; top: 69px; left: 212px; bottom: 37px;&quot; class=&quot;geHsplit&quot;&gt;&lt;/div&gt;" style="text;html=1;align=center;verticalAlign=middle;resizable=0;points=[];autosize=1;strokeColor=none;fillColor=none;" parent="64" vertex="1">
                    <mxGeometry x="-25" y="10" width="90" height="80" as="geometry"/>
                </mxCell>
                <mxCell id="65" value="MEMBERTYPES" style="swimlane;whiteSpace=wrap;html=1;" parent="1" vertex="1">
                    <mxGeometry x="640" y="-2030" width="200" height="130" as="geometry"/>
                </mxCell>
                <mxCell id="92" value="&lt;ul&gt;&lt;li style=&quot;text-align: left;&quot;&gt;id&lt;/li&gt;&lt;li style=&quot;text-align: left;&quot;&gt;name&lt;/li&gt;&lt;li style=&quot;text-align: left;&quot;&gt;sort_order&lt;/li&gt;&lt;li style=&quot;text-align: left;&quot;&gt;ulevel&lt;/li&gt;&lt;/ul&gt;&lt;div style=&quot;width: 12px; z-index: 1; touch-action: none; top: 69px; left: 212px; bottom: 37px;&quot; class=&quot;geHsplit&quot;&gt;&lt;/div&gt;" style="text;html=1;align=center;verticalAlign=middle;resizable=0;points=[];autosize=1;strokeColor=none;fillColor=none;" parent="65" vertex="1">
                    <mxGeometry x="-20" y="10" width="120" height="120" as="geometry"/>
                </mxCell>
                <mxCell id="66" value="COMMUNES" style="swimlane;whiteSpace=wrap;html=1;startSize=23;" parent="1" vertex="1">
                    <mxGeometry x="1000" y="-1782.5" width="200" height="105" as="geometry"/>
                </mxCell>
                <mxCell id="85" value="&lt;ul&gt;&lt;li style=&quot;text-align: left;&quot;&gt;id&lt;/li&gt;&lt;li style=&quot;text-align: left;&quot;&gt;district_ID&lt;/li&gt;&lt;li style=&quot;text-align: left;&quot;&gt;name&lt;/li&gt;&lt;/ul&gt;&lt;div style=&quot;width: 12px; z-index: 1; touch-action: none; top: 69px; left: 212px; bottom: 37px;&quot; class=&quot;geHsplit&quot;&gt;&lt;/div&gt;" style="text;html=1;align=center;verticalAlign=middle;resizable=0;points=[];autosize=1;strokeColor=none;fillColor=none;" parent="66" vertex="1">
                    <mxGeometry x="-30" y="12.5" width="120" height="100" as="geometry"/>
                </mxCell>
                <mxCell id="67" value="LAT_LONG" style="swimlane;whiteSpace=wrap;html=1;" parent="1" vertex="1">
                    <mxGeometry x="-200" y="-1540" width="200" height="120" as="geometry"/>
                </mxCell>
                <mxCell id="88" value="&lt;ul&gt;&lt;li style=&quot;text-align: left;&quot;&gt;id&lt;/li&gt;&lt;li style=&quot;text-align: left;&quot;&gt;pc6&lt;/li&gt;&lt;li style=&quot;text-align: left;&quot;&gt;lat&lt;/li&gt;&lt;li style=&quot;text-align: left;&quot;&gt;lng&lt;/li&gt;&lt;/ul&gt;&lt;div style=&quot;width: 12px; z-index: 1; touch-action: none; top: 69px; left: 212px; bottom: 37px;&quot; class=&quot;geHsplit&quot;&gt;&lt;/div&gt;" style="text;html=1;align=center;verticalAlign=middle;resizable=0;points=[];autosize=1;strokeColor=none;fillColor=none;" parent="67" vertex="1">
                    <mxGeometry x="-25" y="8" width="80" height="120" as="geometry"/>
                </mxCell>
                <mxCell id="68" value="CONTACTS" style="swimlane;whiteSpace=wrap;html=1;" parent="1" vertex="1">
                    <mxGeometry x="680" y="-1490" width="200" height="193" as="geometry"/>
                </mxCell>
                <mxCell id="86" value="&lt;ul&gt;&lt;li style=&quot;text-align: left;&quot;&gt;id&lt;/li&gt;&lt;li style=&quot;text-align: left;&quot;&gt;supplier_ID&lt;/li&gt;&lt;li style=&quot;text-align: left;&quot;&gt;department&lt;/li&gt;&lt;li style=&quot;text-align: left;&quot;&gt;contacttype&lt;/li&gt;&lt;li style=&quot;text-align: left;&quot;&gt;name&lt;/li&gt;&lt;li style=&quot;text-align: left;&quot;&gt;email&lt;/li&gt;&lt;li style=&quot;text-align: left;&quot;&gt;tel&lt;/li&gt;&lt;/ul&gt;&lt;div style=&quot;width: 12px; z-index: 1; touch-action: none; top: 69px; left: 212px; bottom: 37px;&quot; class=&quot;geHsplit&quot;&gt;&lt;/div&gt;" style="text;html=1;align=center;verticalAlign=middle;resizable=0;points=[];autosize=1;strokeColor=none;fillColor=none;" parent="68" vertex="1">
                    <mxGeometry x="-15" y="13" width="120" height="180" as="geometry"/>
                </mxCell>
                <mxCell id="69" value="SUPPLIERS" style="swimlane;whiteSpace=wrap;html=1;" parent="1" vertex="1">
                    <mxGeometry x="325" y="-1800" width="200" height="280" as="geometry"/>
                </mxCell>
                <mxCell id="90" value="&lt;ul&gt;&lt;li style=&quot;text-align: left;&quot;&gt;id&lt;/li&gt;&lt;li style=&quot;text-align: left;&quot;&gt;membertype&lt;/li&gt;&lt;li style=&quot;text-align: left;&quot;&gt;company&lt;/li&gt;&lt;li style=&quot;text-align: left;&quot;&gt;name&lt;/li&gt;&lt;li style=&quot;text-align: left;&quot;&gt;straat&lt;/li&gt;&lt;li style=&quot;text-align: left;&quot;&gt;huisnr&lt;/li&gt;&lt;li style=&quot;text-align: left;&quot;&gt;postcode&lt;/li&gt;&lt;li style=&quot;text-align: left;&quot;&gt;city_ID&lt;/li&gt;&lt;li style=&quot;text-align: left;&quot;&gt;p_address&lt;/li&gt;&lt;li style=&quot;text-align: left;&quot;&gt;p_postcode&lt;/li&gt;&lt;li style=&quot;text-align: left;&quot;&gt;p_city_ID&lt;/li&gt;&lt;/ul&gt;&lt;div style=&quot;width: 12px; z-index: 1; touch-action: none; top: 69px; left: 212px; bottom: 37px;&quot; class=&quot;geHsplit&quot;&gt;&lt;/div&gt;" style="text;html=1;align=center;verticalAlign=middle;resizable=0;points=[];autosize=1;strokeColor=none;fillColor=none;" parent="69" vertex="1">
                    <mxGeometry x="-19" y="10" width="130" height="260" as="geometry"/>
                </mxCell>
                <mxCell id="70" value="COUNTRIES" style="swimlane;whiteSpace=wrap;html=1;" parent="1" vertex="1">
                    <mxGeometry x="1640" y="-1790" width="200" height="120" as="geometry"/>
                </mxCell>
                <mxCell id="91" value="&lt;ul&gt;&lt;li style=&quot;text-align: left;&quot;&gt;id&lt;/li&gt;&lt;li style=&quot;text-align: left;&quot;&gt;code&lt;/li&gt;&lt;li style=&quot;text-align: left;&quot;&gt;name&lt;/li&gt;&lt;li style=&quot;text-align: left;&quot;&gt;display&lt;/li&gt;&lt;/ul&gt;&lt;div style=&quot;width: 12px; z-index: 1; touch-action: none; top: 69px; left: 212px; bottom: 37px;&quot; class=&quot;geHsplit&quot;&gt;&lt;/div&gt;" style="text;html=1;align=center;verticalAlign=middle;resizable=0;points=[];autosize=1;strokeColor=none;fillColor=none;" parent="70" vertex="1">
                    <mxGeometry x="-27" y="8" width="100" height="120" as="geometry"/>
                </mxCell>
                <mxCell id="71" value="PROPERTYTYPES" style="swimlane;whiteSpace=wrap;html=1;" parent="1" vertex="1">
                    <mxGeometry x="6" y="-2040" width="200" height="160" as="geometry"/>
                </mxCell>
                <mxCell id="84" value="&lt;ul&gt;&lt;li style=&quot;text-align: left;&quot;&gt;id&lt;/li&gt;&lt;li style=&quot;text-align: left;&quot;&gt;csvreg&lt;/li&gt;&lt;li style=&quot;text-align: left;&quot;&gt;name&lt;/li&gt;&lt;li style=&quot;text-align: left;&quot;&gt;proptype&lt;/li&gt;&lt;li style=&quot;text-align: left;&quot;&gt;display&lt;/li&gt;&lt;li style=&quot;text-align: left;&quot;&gt;is_filter&lt;/li&gt;&lt;/ul&gt;&lt;div style=&quot;width: 12px; z-index: 1; touch-action: none; top: 69px; left: 212px; bottom: 37px;&quot; class=&quot;geHsplit&quot;&gt;&lt;/div&gt;" style="text;html=1;align=center;verticalAlign=middle;resizable=0;points=[];autosize=1;strokeColor=none;fillColor=none;" parent="71" vertex="1">
                    <mxGeometry x="-16" y="10" width="110" height="160" as="geometry"/>
                </mxCell>
                <mxCell id="72" value="PROPERTIES" style="swimlane;whiteSpace=wrap;html=1;" parent="1" vertex="1">
                    <mxGeometry x="325" y="-2027.5" width="200" height="135" as="geometry"/>
                </mxCell>
                <mxCell id="79" value="&lt;ul&gt;&lt;li style=&quot;text-align: left;&quot;&gt;id&lt;/li&gt;&lt;li style=&quot;text-align: left;&quot;&gt;supplier_ID&lt;/li&gt;&lt;li style=&quot;text-align: left;&quot;&gt;propertytype_ID&lt;/li&gt;&lt;li style=&quot;text-align: left;&quot;&gt;content&lt;/li&gt;&lt;/ul&gt;&lt;div style=&quot;width: 12px; z-index: 1; touch-action: none; top: 69px; left: 212px; bottom: 37px;&quot; class=&quot;geHsplit&quot;&gt;&lt;/div&gt;" style="text;html=1;align=center;verticalAlign=middle;resizable=0;points=[];autosize=1;strokeColor=none;fillColor=none;" parent="72" vertex="1">
                    <mxGeometry x="-19" y="15" width="150" height="120" as="geometry"/>
                </mxCell>
                <mxCell id="73" value="DEPARTMENTS" style="swimlane;whiteSpace=wrap;html=1;startSize=23;" parent="1" vertex="1">
                    <mxGeometry x="680" y="-1210" width="200" height="80" as="geometry"/>
                </mxCell>
                <mxCell id="80" value="&lt;ul&gt;&lt;li style=&quot;text-align: left;&quot;&gt;id&lt;/li&gt;&lt;li style=&quot;text-align: left;&quot;&gt;name&lt;/li&gt;&lt;/ul&gt;&lt;div style=&quot;width: 12px; z-index: 1; touch-action: none; top: 69px; left: 212px; bottom: 37px;&quot; class=&quot;geHsplit&quot;&gt;&lt;/div&gt;" style="text;html=1;align=center;verticalAlign=middle;resizable=0;points=[];autosize=1;strokeColor=none;fillColor=none;" parent="73" vertex="1">
                    <mxGeometry x="-25" y="10" width="90" height="80" as="geometry"/>
                </mxCell>
                <mxCell id="74" value="YN_PROPERTIES" style="swimlane;whiteSpace=wrap;html=1;" parent="1" vertex="1">
                    <mxGeometry x="6" y="-1720" width="200" height="120" as="geometry"/>
                </mxCell>
                <mxCell id="81" value="&lt;ul&gt;&lt;li style=&quot;text-align: left;&quot;&gt;id&lt;/li&gt;&lt;li style=&quot;text-align: left;&quot;&gt;supplier_ID&lt;/li&gt;&lt;li style=&quot;text-align: left;&quot;&gt;propertytype_ID&lt;/li&gt;&lt;li style=&quot;text-align: left;&quot;&gt;consent&lt;/li&gt;&lt;/ul&gt;&lt;div style=&quot;width: 12px; z-index: 1; touch-action: none; top: 69px; left: 212px; bottom: 37px;&quot; class=&quot;geHsplit&quot;&gt;&lt;/div&gt;" style="text;html=1;align=center;verticalAlign=middle;resizable=0;points=[];autosize=1;strokeColor=none;fillColor=none;" parent="74" vertex="1">
                    <mxGeometry x="-25" y="10" width="150" height="120" as="geometry"/>
                </mxCell>
                <mxCell id="75" value="HITCOUNT" style="swimlane;whiteSpace=wrap;html=1;" parent="1" vertex="1">
                    <mxGeometry x="680" y="-1654" width="200" height="130" as="geometry"/>
                </mxCell>
                <mxCell id="82" value="&lt;ul&gt;&lt;li style=&quot;text-align: left;&quot;&gt;supplier_ID&lt;/li&gt;&lt;li style=&quot;text-align: left;&quot;&gt;year&lt;/li&gt;&lt;li style=&quot;text-align: left;&quot;&gt;month&lt;/li&gt;&lt;li style=&quot;text-align: left;&quot;&gt;hitcount&lt;/li&gt;&lt;/ul&gt;&lt;div style=&quot;width: 12px; z-index: 1; touch-action: none; top: 69px; left: 212px; bottom: 37px;&quot; class=&quot;geHsplit&quot;&gt;&lt;/div&gt;" style="text;html=1;align=center;verticalAlign=middle;resizable=0;points=[];autosize=1;strokeColor=none;fillColor=none;" parent="75" vertex="1">
                    <mxGeometry x="-20" y="10" width="120" height="120" as="geometry"/>
                </mxCell>
                <mxCell id="98" value="" style="edgeStyle=orthogonalEdgeStyle;fontSize=12;html=1;endArrow=ERmany;entryX=1;entryY=0.25;entryDx=0;entryDy=0;exitX=0;exitY=0.5;exitDx=0;exitDy=0;" edge="1" parent="1" source="62" target="69">
                    <mxGeometry width="100" height="100" relative="1" as="geometry">
                        <mxPoint x="640" y="-1780" as="sourcePoint"/>
                        <mxPoint x="660" y="-1830" as="targetPoint"/>
                    </mxGeometry>
                </mxCell>
                <mxCell id="99" value="" style="edgeStyle=orthogonalEdgeStyle;fontSize=12;html=1;endArrow=ERmany;entryX=1;entryY=0.5;entryDx=0;entryDy=0;" edge="1" parent="1" target="74">
                    <mxGeometry width="100" height="100" relative="1" as="geometry">
                        <mxPoint x="320" y="-1660" as="sourcePoint"/>
                        <mxPoint x="756" y="-1600" as="targetPoint"/>
                    </mxGeometry>
                </mxCell>
                <mxCell id="100" value="" style="edgeStyle=orthogonalEdgeStyle;fontSize=12;html=1;endArrow=ERmany;exitX=0.5;exitY=1;exitDx=0;exitDy=0;entryX=0.5;entryY=0;entryDx=0;entryDy=0;" edge="1" parent="1" source="71" target="74">
                    <mxGeometry width="100" height="100" relative="1" as="geometry">
                        <mxPoint x="656" y="-1500" as="sourcePoint"/>
                        <mxPoint x="-10" y="-1810" as="targetPoint"/>
                    </mxGeometry>
                </mxCell>
                <mxCell id="101" value="" style="edgeStyle=orthogonalEdgeStyle;fontSize=12;html=1;endArrow=ERmany;entryX=0;entryY=0.5;entryDx=0;entryDy=0;exitX=1;exitY=0.75;exitDx=0;exitDy=0;" edge="1" parent="1" source="69" target="75">
                    <mxGeometry width="100" height="100" relative="1" as="geometry">
                        <mxPoint x="400" y="-1340" as="sourcePoint"/>
                        <mxPoint x="500" y="-1440" as="targetPoint"/>
                    </mxGeometry>
                </mxCell>
                <mxCell id="102" value="" style="edgeStyle=orthogonalEdgeStyle;fontSize=12;html=1;endArrow=ERmany;entryX=0.5;entryY=1;entryDx=0;entryDy=0;exitX=0.5;exitY=0;exitDx=0;exitDy=0;" edge="1" parent="1" source="69" target="72">
                    <mxGeometry width="100" height="100" relative="1" as="geometry">
                        <mxPoint x="666" y="-1490" as="sourcePoint"/>
                        <mxPoint x="766" y="-1590" as="targetPoint"/>
                    </mxGeometry>
                </mxCell>
                <mxCell id="104" value="" style="edgeStyle=orthogonalEdgeStyle;fontSize=12;html=1;endArrow=ERmany;exitX=1;exitY=0.5;exitDx=0;exitDy=0;entryX=0;entryY=0.5;entryDx=0;entryDy=0;" edge="1" parent="1" source="71" target="72">
                    <mxGeometry width="100" height="100" relative="1" as="geometry">
                        <mxPoint x="666" y="-1490" as="sourcePoint"/>
                        <mxPoint x="310" y="-1960" as="targetPoint"/>
                    </mxGeometry>
                </mxCell>
                <mxCell id="105" value="" style="edgeStyle=orthogonalEdgeStyle;fontSize=12;html=1;endArrow=ERmany;entryX=0;entryY=0.5;entryDx=0;entryDy=0;exitX=0.75;exitY=1;exitDx=0;exitDy=0;" edge="1" parent="1" source="69" target="68">
                    <mxGeometry width="100" height="100" relative="1" as="geometry">
                        <mxPoint x="490" y="-1411" as="sourcePoint"/>
                        <mxPoint x="645" y="-1410" as="targetPoint"/>
                    </mxGeometry>
                </mxCell>
                <mxCell id="106" value="" style="edgeStyle=orthogonalEdgeStyle;fontSize=12;html=1;endArrow=ERmany;exitX=1;exitY=0.5;exitDx=0;exitDy=0;entryX=0;entryY=0.5;entryDx=0;entryDy=0;" edge="1" parent="1" source="62" target="66">
                    <mxGeometry width="100" height="100" relative="1" as="geometry">
                        <mxPoint x="535" y="-1580" as="sourcePoint"/>
                        <mxPoint x="970" y="-1610" as="targetPoint"/>
                    </mxGeometry>
                </mxCell>
                <mxCell id="107" value="" style="edgeStyle=orthogonalEdgeStyle;fontSize=12;html=1;endArrow=ERmany;exitX=1;exitY=0.5;exitDx=0;exitDy=0;entryX=0;entryY=0.5;entryDx=0;entryDy=0;" edge="1" parent="1">
                    <mxGeometry width="100" height="100" relative="1" as="geometry">
                        <mxPoint x="1200.0000000000005" y="-1730.71" as="sourcePoint"/>
                        <mxPoint x="1320" y="-1730.71" as="targetPoint"/>
                    </mxGeometry>
                </mxCell>
                <mxCell id="108" value="" style="edgeStyle=orthogonalEdgeStyle;fontSize=12;html=1;endArrow=ERmany;exitX=1;exitY=0.5;exitDx=0;exitDy=0;entryX=0;entryY=0.5;entryDx=0;entryDy=0;" edge="1" parent="1">
                    <mxGeometry width="100" height="100" relative="1" as="geometry">
                        <mxPoint x="1520.0000000000005" y="-1730.71" as="sourcePoint"/>
                        <mxPoint x="1640" y="-1730.71" as="targetPoint"/>
                    </mxGeometry>
                </mxCell>
                <mxCell id="112" value="" style="edgeStyle=orthogonalEdgeStyle;fontSize=12;html=1;endArrow=ERmany;entryX=1;entryY=0.5;entryDx=0;entryDy=0;exitX=0;exitY=0.5;exitDx=0;exitDy=0;" edge="1" parent="1" source="71" target="59">
                    <mxGeometry width="100" height="100" relative="1" as="geometry">
                        <mxPoint x="-50" y="-1930" as="sourcePoint"/>
                        <mxPoint y="-1760" as="targetPoint"/>
                    </mxGeometry>
                </mxCell>
                <mxCell id="113" value="" style="edgeStyle=orthogonalEdgeStyle;fontSize=12;html=1;endArrow=ERmany;entryX=0;entryY=0.5;entryDx=0;entryDy=0;exitX=1;exitY=0.5;exitDx=0;exitDy=0;" edge="1" parent="1" source="55" target="59">
                    <mxGeometry width="100" height="100" relative="1" as="geometry">
                        <mxPoint x="16" y="-1950" as="sourcePoint"/>
                        <mxPoint x="-90" y="-1950" as="targetPoint"/>
                    </mxGeometry>
                </mxCell>
                <mxCell id="114" value="" style="edgeStyle=orthogonalEdgeStyle;fontSize=12;html=1;endArrow=ERmany;exitX=0.25;exitY=1;exitDx=0;exitDy=0;entryX=0.5;entryY=0;entryDx=0;entryDy=0;" edge="1" parent="1" source="69" target="60">
                    <mxGeometry width="100" height="100" relative="1" as="geometry">
                        <mxPoint x="216" y="-1950" as="sourcePoint"/>
                        <mxPoint x="335" y="-1950" as="targetPoint"/>
                    </mxGeometry>
                </mxCell>
                <mxCell id="115" value="" style="edgeStyle=orthogonalEdgeStyle;fontSize=12;html=1;endArrow=ERmany;exitX=0.5;exitY=0;exitDx=0;exitDy=0;entryX=0.5;entryY=1;entryDx=0;entryDy=0;" edge="1" parent="1" source="63" target="60">
                    <mxGeometry width="100" height="100" relative="1" as="geometry">
                        <mxPoint x="385" y="-1510" as="sourcePoint"/>
                        <mxPoint x="200" y="-1435" as="targetPoint"/>
                    </mxGeometry>
                </mxCell>
                <mxCell id="121" value="" style="edgeStyle=orthogonalEdgeStyle;fontSize=12;html=1;endArrow=ERmany;entryX=0.5;entryY=1;entryDx=0;entryDy=0;" edge="1" parent="1" source="73" target="68">
                    <mxGeometry width="100" height="100" relative="1" as="geometry">
                        <mxPoint x="535" y="-1580" as="sourcePoint"/>
                        <mxPoint x="690" y="-1579" as="targetPoint"/>
                    </mxGeometry>
                </mxCell>
                <mxCell id="123" value="" style="edgeStyle=orthogonalEdgeStyle;fontSize=12;html=1;endArrow=ERmany;entryX=0.5;entryY=1;entryDx=0;entryDy=0;exitX=0.5;exitY=0;exitDx=0;exitDy=0;" edge="1" parent="1" source="58" target="69">
                    <mxGeometry width="100" height="100" relative="1" as="geometry">
                        <mxPoint x="535" y="-1580" as="sourcePoint"/>
                        <mxPoint x="690" y="-1579" as="targetPoint"/>
                    </mxGeometry>
                </mxCell>
                <mxCell id="124" value="" style="edgeStyle=orthogonalEdgeStyle;fontSize=12;html=1;endArrow=ERmany;entryX=0;entryY=0.5;entryDx=0;entryDy=0;exitX=0.75;exitY=0;exitDx=0;exitDy=0;" edge="1" parent="1" source="69" target="65">
                    <mxGeometry width="100" height="100" relative="1" as="geometry">
                        <mxPoint x="690" y="-1720" as="sourcePoint"/>
                        <mxPoint x="535" y="-1720" as="targetPoint"/>
                        <Array as="points">
                            <mxPoint x="475" y="-1840"/>
                            <mxPoint x="570" y="-1840"/>
                            <mxPoint x="570" y="-1965"/>
                        </Array>
                    </mxGeometry>
                </mxCell>
                <mxCell id="127" value="" style="edgeStyle=orthogonalEdgeStyle;fontSize=12;html=1;endArrow=ERmany;exitX=1;exitY=0.5;exitDx=0;exitDy=0;entryX=0;entryY=0.75;entryDx=0;entryDy=0;" edge="1" parent="1" source="67" target="69">
                    <mxGeometry width="100" height="100" relative="1" as="geometry">
                        <mxPoint x="385" y="-1510" as="sourcePoint"/>
                        <mxPoint x="200" y="-1435" as="targetPoint"/>
                    </mxGeometry>
                </mxCell>
            </root>
        </mxGraphModel>
    </diagram>
</mxfile>